<svg xmlns="http://www.w3.org/2000/svg" viewBox="0 0 360 170" role="img" aria-label="Crow silhouette">
  <path fill="#020203" d="M177 86c-18-13-34-19-55-22-42-7-83 5-122-24 24 42 62 61 114 68-29 5-56 20-82 46 47-14 89-17 128-8 17 4 32 7 48 2 21 7 49 7 87 1-31-13-54-27-70-43 35-2 78-16 135-56-61 12-111 13-150 2-8-2-15-3-22-3 11-10 25-20 44-31-33 6-59 18-78 36-10 2-20 6-29 11 19 5 36 12 52 21Z"/>
  <path fill="#020203" d="M206 83c21-4 46-1 76 10-24 4-48 2-71-4l-5-6Z"/>
  <path fill="#020203" d="M196 83c12-14 29-23 52-28-17 15-30 28-39 40l-13-12Z"/>
</svg>
